<svg width="31" height="39" viewBox="0 0 31 39" fill="none" xmlns="http://www.w3.org/2000/svg">
<g clip-path="url(#clip0_207_34)">
<path d="M3.19972 3.04998L3.69644 2.64284C4.10731 2.30608 4.60529 2.08833 5.13474 2.01393L11.439 1.12811C11.7409 1.0857 12.0476 1.09064 12.348 1.14277L17.4854 2.03449C17.8404 2.0961 18.1805 2.22262 18.488 2.40748L24.1288 5.79802C24.382 5.95024 24.6099 6.14001 24.8043 6.36061L28.4925 10.5463C28.9468 11.0621 29.197 11.7216 29.197 12.4039V17.7277V27.655V33.7713C29.197 34.8092 28.6206 35.7642 27.6941 36.2613L25.8774 37.2359C25.4539 37.4632 24.979 37.5823 24.4965 37.5823H16.9412H7.48149C7.06425 37.5823 6.65195 37.4932 6.27308 37.3212L3.83739 36.2155C2.81612 35.7519 2.16211 34.7465 2.16211 33.6402V30.4914V23.4005V15.2459V8.155V5.22893C2.16211 4.38716 2.54225 3.58887 3.19972 3.04998Z" fill="url(#paint0_linear_207_34)"/>
<path d="M19.4648 7.79957V2.83594L22.3486 4.25412L26.6741 8.15412L27.0346 10.9905H23.43L20.5462 10.6359L19.4648 7.79957Z" fill="url(#paint1_linear_207_34)"/>
<path d="M6.48828 23.4004H16.9418" stroke="#FFAA00" stroke-width="2" stroke-linecap="round"/>
<path d="M6.48828 27.4004H19.465" stroke="#FFAA00" stroke-width="2" stroke-linecap="round"/>
<path d="M6.48828 31.4004H20.9069" stroke="#FFAA00" stroke-width="2" stroke-linecap="round"/>
<path d="M18.2702 1.41797H4.32513C2.73249 1.41797 1.44141 2.68785 1.44141 4.25433V34.7452C1.44141 36.3117 2.73249 37.5816 4.32513 37.5816H26.3135C27.9061 37.5816 29.1972 36.3117 29.1972 34.7452V12.1656C29.1972 11.4133 28.8934 10.6919 28.3526 10.1599L20.3093 2.24872C19.7685 1.7168 19.035 1.41797 18.2702 1.41797Z" stroke="#FFAA00" stroke-width="3"/>
<path d="M19.4648 1.41797V8.50888C19.4648 10.0753 20.756 11.3452 22.3486 11.3452H28.8369" stroke="#FFAA00" stroke-width="3"/>
</g>
<defs>
<linearGradient id="paint0_linear_207_34" x1="15.6796" y1="1.06409" x2="15.8539" y2="28.3641" gradientUnits="userSpaceOnUse">
<stop stop-color="#FFF8EA"/>
<stop offset="1" stop-color="#FFF7E6"/>
</linearGradient>
<linearGradient id="paint1_linear_207_34" x1="24.8718" y1="6.38139" x2="21.3207" y2="9.63078" gradientUnits="userSpaceOnUse">
<stop stop-color="#FDBF42"/>
<stop offset="1" stop-color="#FF5E4D"/>
</linearGradient>
<clipPath id="clip0_207_34">
<rect width="31" height="39" fill="white"/>
</clipPath>
</defs>
</svg>
